<svg width="2303" height="2303" viewBox="0 0 2303 2303" fill="none" xmlns="http://www.w3.org/2000/svg">
<path d="M2302.09 1151.04C2302.09 1786.75 1786.75 2302.09 1151.04 2302.09C515.339 2302.09 0 1786.75 0 1151.04C0 515.34 515.339 0 1151.04 0C1786.75 0 2302.09 515.34 2302.09 1151.04Z" fill="#101011"/>
<path d="M549.558 766.293L773.304 1155.21C774.889 1157.97 778.861 1157.98 780.462 1155.23L1006.34 768.095C1007.94 765.343 1005.97 761.887 1002.78 761.874L553.16 760.094C549.972 760.081 547.968 763.529 549.558 766.293Z" fill="#FF3358"/>
<path d="M919.884 1360.97L1143.63 1749.89C1145.21 1752.65 1149.19 1752.66 1150.79 1749.91L1376.66 1362.78C1378.27 1360.02 1376.29 1356.57 1373.11 1356.55L923.485 1354.77C920.297 1354.76 918.293 1358.21 919.884 1360.97Z" fill="#FF3358"/>
<path d="M1295.74 770.787L1519.48 1159.71C1521.07 1162.46 1525.04 1162.47 1526.64 1159.73L1752.51 772.59C1754.12 769.838 1752.14 766.382 1748.96 766.369L1299.34 764.589C1296.15 764.575 1294.15 768.023 1295.74 770.787Z" fill="#FF3358"/>
<path d="M1378.02 1209.65L1154.28 820.726C1152.69 817.97 1148.72 817.958 1147.12 820.705L921.246 1207.84C919.641 1210.59 921.617 1214.05 924.802 1214.06L1374.42 1215.84C1377.61 1215.86 1379.62 1212.41 1378.02 1209.65Z" fill="#FF3358"/>
</svg>
