<?xml version="1.0" standalone="no"?>
<!DOCTYPE svg PUBLIC "-//W3C//DTD SVG 20010904//EN"
 "http://www.w3.org/TR/2001/REC-SVG-20010904/DTD/svg10.dtd">
<svg version="1.0" xmlns="http://www.w3.org/2000/svg"
 width="512.000000pt" height="512.000000pt" viewBox="0 0 512.000000 512.000000"
 preserveAspectRatio="xMidYMid meet">
<metadata>
Created by potrace 1.16, written by Peter Selinger 2001-2019
</metadata>
<g transform="translate(0.000000,512.000000) scale(0.100000,-0.100000)"
fill="#000000" stroke="none">
<path d="M2380 4574 c-209 -20 -352 -53 -546 -125 -179 -66 -329 -138 -479
-228 -306 -185 -496 -359 -633 -577 -36 -57 -151 -287 -147 -292 2 -2 20 5 42
16 52 27 122 107 202 232 122 190 334 419 491 529 289 203 686 347 1080 392
125 14 353 7 490 -16 277 -46 517 -152 765 -338 459 -344 774 -861 861 -1412
21 -128 24 -460 6 -564 -6 -36 -10 -66 -9 -67 1 -2 8 1 15 5 46 28 65 487 28
686 -92 500 -376 984 -761 1300 -192 157 -319 239 -526 340 -118 57 -138 64
-188 62 -31 0 -99 9 -151 20 -157 36 -383 51 -540 37z"/>
<path d="M2394 4006 c-41 -20 -80 -47 -95 -66 -13 -17 -34 -42 -46 -56 -18
-20 -20 -29 -12 -56 16 -57 12 -64 -43 -88 -133 -56 -273 -170 -350 -282 -26
-39 -48 -60 -66 -64 -39 -10 -121 -52 -162 -84 -19 -15 -57 -34 -85 -44 -133
-44 -240 -165 -280 -316 -19 -71 -19 -127 0 -180 9 -27 12 -47 6 -54 -5 -6
-19 -39 -30 -73 -23 -70 -27 -157 -10 -247 13 -74 91 -283 133 -361 19 -34 41
-88 51 -120 21 -75 38 -107 85 -170 21 -28 42 -68 46 -90 3 -22 21 -60 39 -85
17 -25 44 -66 58 -92 15 -26 31 -49 36 -53 5 -3 65 -15 133 -26 123 -21 174
-41 201 -80 13 -17 30 -19 223 -21 l209 -3 23 -42 c30 -54 79 -73 132 -51 23
10 56 13 95 10 53 -3 70 1 153 37 51 22 104 49 119 58 24 16 57 18 318 18 321
0 362 6 429 65 37 33 86 119 111 197 13 40 25 57 52 73 46 27 63 72 63 170 0
64 5 93 26 143 21 49 25 72 21 109 -4 28 0 70 8 101 8 30 19 96 25 148 6 52
14 119 19 149 15 99 -17 241 -76 327 -14 21 -47 63 -73 93 -35 41 -50 69 -60
110 -35 153 -142 295 -269 360 -41 20 -52 21 -168 15 l-124 -7 -67 64 c-80 77
-161 130 -262 173 -64 27 -75 36 -78 58 -2 15 -12 33 -23 40 -18 13 -18 18 -7
65 17 78 1 120 -68 172 -133 100 -235 116 -360 56z m254 -25 c47 -24 107 -83
115 -112 4 -13 -9 -5 -36 25 -54 57 -115 86 -187 86 -61 0 -140 -30 -140 -54
0 -27 12 -46 30 -46 11 0 22 -4 25 -10 4 -6 -15 -10 -51 -10 -56 0 -57 0 -40
19 23 25 14 40 -21 33 l-28 -5 30 24 c76 62 125 80 206 75 30 -2 74 -13 97
-25z m35 -159 l27 -26 1 35 c0 33 1 33 10 9 10 -25 -3 -75 -19 -68 -4 2 -28
25 -52 52 -35 38 -39 46 -20 36 14 -7 37 -24 53 -38z m-330 10 c21 -2 57 1 82
7 33 8 60 8 115 -3 102 -19 106 -28 41 -87 -61 -55 -77 -57 -37 -5 14 19 26
39 26 45 0 7 -37 11 -102 11 -112 0 -168 11 -189 37 -12 15 -12 16 6 8 11 -4
37 -10 58 -13z m-7 -42 c5 -5 34 -16 64 -24 l55 -15 -47 0 c-36 -1 -53 5 -75
24 -15 13 -23 25 -17 25 5 0 14 -4 20 -10z m424 -8 c0 -5 -7 -17 -15 -28 -14
-18 -14 -17 -4 9 12 27 19 34 19 19z m-536 -94 c-15 -29 -15 -43 -4 -144 12
-106 9 -248 -6 -287 -9 -23 -30 -15 -26 9 10 56 13 198 6 231 -8 37 -8 37 -14
-25 -7 -59 -45 -162 -61 -162 -4 0 -26 11 -50 24 -24 14 -72 33 -108 42 -37
10 -67 18 -69 20 -2 1 8 24 22 52 26 51 94 127 156 174 44 33 151 98 162 98 5
0 1 -14 -8 -32z m266 24 c0 -4 -6 -14 -12 -21 -11 -10 -8 -16 11 -32 13 -10
29 -19 35 -19 7 0 49 18 94 40 45 21 88 37 95 34 37 -14 52 -344 20 -423 -17
-42 -60 -101 -73 -101 -5 0 -20 11 -34 25 -16 16 -36 25 -56 25 -26 0 -30 -3
-30 -29 0 -25 -4 -29 -32 -34 -38 -5 -52 5 -109 76 -33 42 -39 56 -39 98 0 44
-24 129 -34 118 -2 -2 0 -38 5 -79 5 -41 7 -76 5 -78 -2 -2 -14 12 -27 30 -22
30 -24 42 -22 133 1 61 6 101 13 103 18 6 40 59 40 98 l0 37 48 -6 c26 -3 56
-2 67 3 26 11 35 12 35 2z m320 -58 c0 -8 -5 -13 -12 -11 -7 1 -15 -11 -19
-28 l-7 -30 -1 36 c-1 35 15 63 31 53 4 -3 8 -12 8 -20z m-532 -9 c7 -14 12
-34 12 -43 -1 -9 -7 -2 -15 16 -17 39 -35 42 -36 5 -2 -25 -2 -26 -6 -5 -10
52 25 72 45 27z m685 -77 c84 -44 179 -124 210 -177 10 -17 14 -31 9 -31 -5 0
-30 -14 -56 -31 -48 -32 -76 -72 -76 -108 0 -29 -36 -48 -105 -55 -57 -5 -59
-5 -30 9 17 8 36 14 42 15 7 0 -7 29 -31 64 -33 48 -46 78 -50 118 -4 29 -12
78 -19 108 l-11 55 -8 -95 c-12 -142 -36 -270 -60 -318 -25 -53 -32 -49 -18 9
6 24 13 107 17 184 4 101 10 145 20 157 8 9 20 48 25 86 13 82 4 81 141 10z
m-159 -5 c-9 -52 -23 -77 -24 -42 0 22 20 79 28 79 2 0 0 -17 -4 -37z m-535
-33 c0 -11 -3 -10 -14 4 -8 11 -15 29 -15 40 1 19 2 19 15 -4 8 -14 14 -32 14
-40z m-329 -190 c106 -20 220 -92 256 -162 14 -27 18 -28 83 -28 77 0 198 -28
262 -60 66 -34 139 -108 170 -175 47 -97 38 -138 -34 -155 -29 -7 -26 -8 21
-9 44 -1 52 -4 52 -20 0 -11 -13 -33 -29 -49 -26 -25 -39 -30 -108 -35 -43 -3
-105 -16 -138 -27 -104 -36 -178 -26 -232 32 l-22 23 61 -3 c33 -2 81 0 107 4
l46 8 -76 7 c-86 9 -153 32 -147 51 3 8 31 15 74 19 l69 5 -57 2 c-32 1 -58 4
-58 6 0 2 11 26 24 53 22 44 45 153 33 153 -3 0 -10 -24 -17 -52 -14 -66 -48
-119 -102 -158 -61 -44 -66 -36 -11 18 59 57 79 114 69 199 -6 49 -52 160 -63
149 -2 -2 1 -23 6 -47 24 -101 4 -175 -62 -238 -27 -25 -38 -30 -41 -20 -2 8
-10 32 -16 54 -17 56 -77 170 -102 192 l-20 18 20 -35 c29 -51 52 -136 52
-196 l0 -52 -57 24 c-39 16 -78 24 -120 24 -55 0 -66 3 -98 32 -53 46 -85 115
-86 185 l-1 58 -15 -35 c-24 -55 -14 -138 25 -200 18 -28 32 -53 32 -54 0 -2
-36 -22 -79 -45 -125 -64 -192 -55 -232 33 -35 78 -16 189 47 274 l27 37 -40
-39 c-54 -50 -88 -115 -106 -201 l-15 -70 -1 56 c-2 126 116 279 248 319 35
11 79 34 98 50 84 74 188 102 303 80z m1605 -44 c88 -52 165 -160 200 -280 35
-118 2 -192 -108 -246 -55 -27 -73 -31 -128 -28 l-64 3 40 18 c21 10 48 25 59
35 30 27 56 93 56 144 0 95 -74 229 -151 272 -33 19 -33 18 12 -31 54 -58 75
-94 88 -155 16 -68 0 -116 -54 -165 -59 -54 -75 -55 -76 -5 0 20 -4 46 -9 57
l-9 20 -1 -20 c0 -11 -9 -38 -19 -60 l-19 -40 -1 61 c-1 33 -8 81 -17 106 -31
92 -124 168 -204 167 l-35 0 40 -13 c62 -19 90 -42 120 -98 22 -41 30 -69 33
-129 5 -89 -11 -141 -23 -74 -4 22 -18 61 -32 88 -25 51 -39 63 -23 21 11 -29
12 -110 1 -138 -6 -16 -13 -12 -52 32 -24 28 -57 61 -74 74 l-30 23 19 -30
c11 -17 25 -39 33 -50 19 -29 16 -45 -9 -46 -19 -1 -17 -3 8 -10 17 -5 39 -18
49 -29 18 -19 17 -20 -41 -46 -85 -39 -184 -43 -243 -12 -24 13 -44 28 -43 33
0 6 20 15 44 22 34 9 38 11 16 12 -37 1 -98 63 -98 99 0 34 27 75 70 107 44
32 27 32 -30 -1 l-44 -25 -18 23 c-60 78 50 158 217 158 80 0 98 11 109 66 14
64 101 114 197 114 128 0 268 -106 315 -239 8 -23 13 -29 14 -16 0 30 -63 155
-96 190 -16 17 -45 42 -64 57 l-35 28 33 -10 c19 -5 53 -20 77 -34z m-1270
-86 c15 -30 15 -30 -11 -30 -20 0 -25 4 -20 16 3 9 6 22 6 30 0 22 8 17 25
-16z m1636 -478 c26 -53 37 -171 20 -212 -9 -24 -10 -24 -11 10 0 40 -20 81
-20 43 0 -28 -14 -37 -30 -18 -7 9 -32 30 -54 48 l-41 32 36 -45 c87 -109 103
-190 60 -306 l-23 -61 21 -41 c35 -69 44 -127 27 -186 -8 -28 -17 -85 -21
-126 -4 -41 -12 -87 -18 -102 -13 -30 -112 -102 -127 -93 -6 3 -10 20 -10 37
0 26 12 43 64 92 35 34 69 71 75 83 13 27 14 92 2 164 -5 30 -15 92 -22 138
-6 46 -18 105 -25 130 l-12 46 -2 -75 c0 -41 -5 -108 -9 -149 -8 -64 -7 -78
10 -105 29 -47 25 -106 -9 -139 -26 -25 -140 -72 -150 -62 -3 3 -10 1 -16 -4
-16 -13 -126 -41 -126 -32 0 11 129 133 170 161 59 40 100 83 100 106 0 12 -9
32 -20 45 l-19 24 6 -36 c6 -39 6 -39 -186 -200 -63 -54 -129 -134 -119 -144
3 -3 54 -9 112 -12 l107 -6 -27 -28 c-32 -34 -128 -84 -247 -130 -101 -39 -98
-49 6 -24 86 21 168 56 215 91 47 36 51 24 5 -16 -54 -47 -119 -74 -288 -119
-157 -41 -261 -74 -307 -98 l-28 -14 0 43 c0 43 -29 120 -49 132 -6 4 -15 15
-21 25 -8 16 4 26 99 80 60 34 145 78 190 98 44 20 79 38 77 40 -2 2 -16 -1
-31 -7 -15 -6 -30 -8 -33 -6 -12 13 74 139 135 197 85 79 134 113 210 145 l58
25 -45 -7 c-25 -3 -65 -15 -89 -25 -69 -30 -32 2 60 51 91 50 128 87 130 133
5 104 -15 187 -72 298 -34 69 -34 69 -9 69 31 0 123 44 162 79 19 17 41 45 49
63 l13 31 37 -41 c20 -23 47 -64 60 -90z m-1948 53 c93 -39 167 -146 189 -274
10 -62 10 -72 -6 -96 -21 -32 -32 -31 -148 11 -51 18 -78 33 -78 43 0 20 -71
137 -109 181 -27 30 -23 20 27 -81 l58 -117 -116 -4 c-91 -4 -128 -10 -180
-30 -49 -19 -71 -23 -90 -16 -66 24 -112 110 -91 169 15 44 -7 25 -30 -25 -22
-49 -24 -114 -5 -161 15 -35 67 -75 99 -75 14 0 17 -9 17 -47 0 -64 16 -117
45 -150 l23 -28 6 35 c3 19 7 58 9 85 4 49 4 49 -9 20 -7 -16 -14 -39 -14 -50
-1 -14 -4 -12 -11 10 -12 40 -1 126 22 164 21 35 44 42 206 66 101 15 117 15
171 1 33 -8 77 -25 98 -36 21 -12 69 -33 107 -47 130 -47 229 -120 271 -201
l15 -30 -37 -6 c-64 -12 -128 -36 -162 -61 -19 -14 -31 -25 -28 -25 3 0 56 16
119 35 97 30 115 33 122 20 4 -8 14 -15 22 -15 7 0 24 -13 37 -30 22 -28 25
-29 63 -19 22 6 79 29 127 51 48 22 94 38 102 35 20 -8 75 -84 82 -114 8 -29
-1 -62 -24 -91 l-18 -23 1 23 c0 13 4 29 9 36 12 19 1 25 -22 13 -12 -6 -29
-11 -39 -11 -10 1 1 11 27 25 107 57 -75 -2 -202 -66 -43 -21 -96 -45 -120
-54 l-43 -14 33 25 c17 14 32 30 32 35 0 6 -18 -4 -40 -22 -22 -18 -37 -36
-34 -41 3 -5 2 -7 -3 -6 -4 1 -42 -16 -83 -39 -141 -78 -330 -142 -429 -144
l-46 -1 45 -9 c25 -6 71 -8 103 -7 l58 3 -28 -23 c-58 -47 -118 -48 -273 -7
-30 8 -56 13 -58 11 -8 -9 120 -87 162 -98 41 -11 59 -8 216 30 184 46 259 75
376 148 78 49 96 75 22 31 -69 -40 -236 -98 -294 -102 -30 -3 -54 -3 -54 -1 0
12 195 124 329 190 141 70 190 89 177 68 -3 -5 16 2 42 14 26 12 62 25 81 28
32 6 33 5 26 -22 -9 -38 -33 -72 -51 -72 -29 0 -91 -39 -158 -100 -225 -204
-370 -282 -520 -279 l-61 1 60 9 c82 12 159 36 226 70 57 28 243 163 268 193
20 24 4 19 -33 -9 -60 -46 -249 -155 -305 -176 -123 -46 -321 -61 -451 -35
-46 10 -91 21 -100 26 -25 13 -66 97 -89 179 -22 79 -22 80 -90 165 -60 77
-141 290 -148 394 -6 73 -6 74 15 63 39 -21 34 -11 -16 34 -73 66 -96 118 -90
208 5 68 40 165 66 181 5 3 26 -4 48 -14 67 -34 123 -27 238 30 56 28 121 55
146 60 58 12 146 5 193 -15z m1494 -87 c90 -42 141 -117 168 -244 17 -82 12
-124 -20 -154 -35 -33 -105 -38 -142 -12 -58 41 -112 175 -114 282 -1 76 -17
36 -18 -46 -1 -78 20 -149 64 -215 l35 -52 -47 6 c-87 10 -144 101 -145 232 0
78 25 156 65 202 28 32 34 34 69 29 22 -4 60 -16 85 -28z m-276 -5 c-26 -50
-120 -103 -181 -103 -51 0 -112 32 -134 70 l-19 33 24 -8 c13 -4 62 -10 109
-12 80 -4 107 1 208 36 1 1 -2 -7 -7 -16z m-459 -103 c53 -15 98 -70 98 -122
0 -35 -2 -40 -20 -35 -25 6 -25 5 4 -38 28 -41 41 -106 33 -171 -7 -67 -19
-72 -59 -29 -34 37 -34 37 -65 21 -33 -16 -73 -61 -73 -80 0 -6 -14 -28 -31
-49 -17 -20 -27 -37 -22 -37 24 0 71 46 93 92 14 28 30 54 37 56 16 4 47 -44
40 -63 -6 -15 -131 -82 -180 -96 -25 -7 -31 -3 -62 39 l-34 47 20 21 c11 12
39 29 62 37 81 29 176 57 197 57 11 0 20 5 20 10 0 6 -27 10 -62 10 l-61 0
-52 55 -51 55 27 26 c30 29 45 85 30 111 -8 16 -10 15 -16 -8 l-6 -26 -29 28
c-22 22 -38 29 -68 29 -57 0 -70 -7 -92 -49 -21 -43 -50 -71 -50 -51 0 7 9 27
20 45 56 90 233 148 352 115z m-483 -89 c12 -38 15 -94 4 -105 -4 -4 -13 24
-19 61 -7 37 -15 77 -19 88 -7 18 -6 18 7 5 9 -8 20 -30 27 -49z m706 3 c52
-15 55 -17 55 -48 0 -50 -13 -56 -78 -36 l-57 18 -3 47 c-3 40 -1 47 13 41 9
-3 40 -13 70 -22z m-412 -21 c19 -22 30 -64 20 -78 -5 -6 -35 -19 -69 -29 -49
-15 -65 -16 -83 -6 -27 14 -22 36 7 32 25 -4 27 1 10 28 -10 16 -9 23 12 45
28 30 79 34 103 8z m1415 -136 c2 -71 -2 -128 -10 -156 -12 -40 -13 -30 -13
122 0 111 3 163 10 156 6 -5 11 -60 13 -122z m-882 -3 c-8 -31 -20 -30 -35 2
-10 22 -8 28 11 44 22 18 23 18 26 -2 2 -11 1 -31 -2 -44z m-151 35 c60 -28
75 -52 75 -116 0 -62 -27 -100 -77 -109 l-33 -6 0 86 c0 54 -6 100 -15 123 -8
19 -15 37 -15 39 0 9 23 3 65 -17z m-531 -31 c-8 -13 -44 -9 -44 5 0 8 3 16 6
20 8 8 44 -15 38 -25z m138 -21 c-2 -13 2 -17 14 -15 11 2 25 -9 36 -29 l19
-32 -33 -17 c-18 -9 -48 -28 -67 -42 l-34 -26 -49 53 c-26 29 -48 57 -48 62 0
14 121 69 145 66 13 -1 19 -8 17 -20z m572 -41 c-9 -15 -19 -24 -22 -22 -2 3
3 17 12 32 10 14 20 23 23 21 2 -3 -3 -17 -13 -31z m154 -108 c22 -23 56 -44
86 -54 l50 -17 -24 -15 c-52 -32 -146 -140 -174 -199 -25 -52 -34 -62 -66 -72
-54 -16 -60 -15 -76 24 -18 44 -18 84 2 152 9 31 14 71 11 90 -8 48 6 79 66
143 l52 55 19 -35 c10 -19 34 -52 54 -72z m-354 -71 c13 -9 16 -20 11 -39 l-7
-27 -29 34 c-16 18 -29 35 -29 39 0 11 36 6 54 -7z m51 -77 c-4 -11 -11 -20
-16 -20 -10 0 -12 31 -3 55 6 16 8 16 16 1 5 -9 6 -25 3 -36z m15 -103 c0 -29
-24 -63 -49 -70 -19 -5 -19 -3 4 31 14 20 25 42 25 49 0 7 5 13 10 13 6 0 10
-10 10 -23z m5 -97 c-6 -9 -97 -40 -119 -40 -22 0 17 26 57 37 54 14 70 15 62
3z m15 -56 c0 -12 -69 -32 -134 -39 -50 -6 -67 -5 -62 4 4 6 19 11 34 12 15 0
52 7 82 14 67 15 80 17 80 9z m-45 -76 c-26 -16 -224 -24 -210 -10 9 10 50 14
190 20 35 1 38 0 20 -10z m810 -72 c14 3 25 3 25 0 0 -20 -34 -67 -79 -109
-93 -88 -196 -117 -401 -117 -102 1 -112 2 -90 14 14 8 81 28 150 46 150 38
217 70 284 131 40 37 55 45 68 38 10 -5 29 -7 43 -3z m-1001 -21 c27 -8 68
-15 91 -15 37 0 46 -5 69 -35 44 -58 51 -89 31 -142 -16 -41 -24 -48 -89 -78
-39 -19 -87 -36 -106 -39 -31 -6 -29 -4 13 13 47 19 81 41 74 47 -6 6 -128
-34 -144 -48 -14 -11 -22 -6 -59 37 -48 54 -55 80 -24 90 11 3 20 13 20 21 0
11 -4 12 -19 4 -30 -15 -40 -12 -53 15 -9 21 -8 28 7 45 22 24 33 25 57 3 28
-25 32 -8 6 27 l-23 32 24 19 c28 23 59 24 125 4z m-204 -186 c15 -42 8 -72
-17 -67 -19 3 -37 67 -30 106 3 14 -1 22 -9 22 -21 0 -17 17 9 35 21 15 22 15
28 -22 3 -21 11 -54 19 -74z m-70 -21 c0 -6 -7 -5 -15 2 -8 7 -15 17 -15 22 0
6 7 5 15 -2 8 -7 15 -17 15 -22z m-85 -18 c4 -6 -22 -10 -72 -9 -61 1 -70 3
-43 9 53 11 108 11 115 0z m209 -56 c25 -10 19 -32 -14 -49 -23 -12 -35 -13
-50 -5 -50 27 8 76 64 54z"/>
<path d="M2595 3640 c-25 -11 1 -11 35 0 20 6 21 8 5 8 -11 0 -29 -3 -40 -8z"/>
<path d="M2450 3613 c84 -61 95 -95 16 -49 -50 29 -69 32 -85 12 -9 -11 -6
-15 15 -20 18 -5 24 -12 20 -22 -3 -8 -1 -12 4 -9 5 3 18 1 27 -4 13 -8 14
-10 4 -11 -12 0 -12 -3 -3 -12 8 -8 15 -9 20 -3 7 10 32 16 65 16 9 0 17 5 17
10 0 16 -57 73 -92 92 -32 17 -32 17 -8 0z"/>
<path d="M2625 3600 c-10 -11 -22 -17 -26 -14 -5 3 -9 0 -9 -5 0 -6 3 -11 8
-11 12 1 68 50 56 50 -6 0 -19 -9 -29 -20z"/>
<path d="M2652 3563 c-42 -22 -56 -25 -70 -16 -9 6 -16 16 -14 23 1 6 -2 9 -8
5 -15 -9 -12 -31 5 -45 10 -8 16 -33 17 -69 l2 -56 3 53 c4 46 7 52 27 52 12
0 27 -5 34 -12 10 -9 16 -8 30 7 9 11 10 14 3 7 -8 -6 -19 -12 -24 -12 -15 0
14 30 45 46 28 14 33 34 12 41 -5 1 -33 -10 -62 -24z"/>
<path d="M2391 3400 c1 -42 1 -43 9 -16 6 17 5 36 0 45 -7 11 -9 3 -9 -29z"/>
<path d="M2499 3424 c-11 -14 -9 -20 19 -45 38 -34 60 -36 93 -10 13 10 29 20
36 22 8 3 6 12 -8 29 -10 14 -17 18 -14 9 4 -11 -3 -20 -25 -29 -39 -16 -87
-3 -82 23 4 21 -2 22 -19 1z"/>
<path d="M2700 3433 c1 -5 9 -24 20 -43 23 -41 27 -23 5 20 -15 29 -25 38 -25
23z"/>
<path d="M2421 3334 c0 -11 3 -14 6 -6 3 7 2 16 -1 19 -3 4 -6 -2 -5 -13z"/>
<path d="M2741 3334 c0 -11 3 -14 6 -6 3 7 2 16 -1 19 -3 4 -6 -2 -5 -13z"/>
<path d="M2478 3332 c-16 -2 -28 -8 -28 -14 0 -5 7 -7 16 -4 9 3 66 6 127 6
78 0 107 3 97 10 -14 9 -143 10 -212 2z"/>
<path d="M2502 3273 c-38 -19 -37 -28 2 -13 15 5 54 10 87 10 38 0 58 4 54 10
-10 16 -107 11 -143 -7z"/>
<path d="M1917 3189 l-42 -41 48 38 c26 21 47 40 47 41 0 10 -16 -2 -53 -38z"/>
<path d="M1643 3201 c-29 -19 -91 -106 -81 -116 3 -3 19 13 37 36 18 22 51 54
74 70 29 21 35 29 21 29 -10 0 -33 -9 -51 -19z"/>
<path d="M3497 1982 c-27 -20 -58 -53 -69 -72 l-20 -35 36 40 c19 22 52 55 73
72 52 44 39 41 -20 -5z"/>
<path d="M3688 1864 c-38 -20 -36 -28 2 -9 17 9 30 18 30 20 0 7 -1 6 -32 -11z"/>
<path d="M3379 1789 c-30 -28 -35 -34 -14 -21 30 20 73 62 63 62 -3 0 -25 -18
-49 -41z"/>
<path d="M3390 1706 c-70 -26 -274 -135 -267 -143 7 -6 191 77 267 120 65 37
65 47 0 23z"/>
<path d="M3058 1583 c-27 -14 -46 -28 -45 -30 5 -4 97 47 97 53 0 6 -1 5 -52
-23z"/>
<path d="M1580 2663 c-23 -36 -30 -58 -30 -98 0 -51 8 -68 44 -95 19 -15 19
-14 3 17 -25 47 -22 121 7 176 30 61 14 61 -24 0z"/>
<path d="M1726 2272 c-9 -26 8 -68 33 -84 18 -11 17 -15 -34 -70 -30 -32 -64
-80 -77 -107 l-22 -49 -39 44 c-22 24 -44 44 -51 43 -29 -4 -47 3 -77 28 l-32
28 7 -30 c9 -36 50 -104 114 -191 26 -34 59 -80 73 -102 43 -63 83 -77 229
-77 146 0 180 12 271 95 l54 50 -86 -40 c-94 -43 -197 -73 -232 -68 -18 3 -11
11 43 47 36 24 56 41 45 38 -11 -2 -59 -16 -106 -30 -48 -14 -96 -23 -108 -20
-32 8 -64 85 -59 141 7 70 35 120 108 192 71 70 137 110 239 146 36 13 59 23
51 23 -37 1 -152 -30 -200 -54 -49 -25 -53 -25 -76 -10 -14 9 -33 30 -43 47
-17 27 -20 28 -25 10z"/>
<path d="M2138 2256 c-41 -11 -118 -58 -118 -72 0 -3 15 3 33 14 32 20 141 57
187 65 15 3 10 5 -15 5 -22 0 -61 -5 -87 -12z"/>
<path d="M1843 2090 c-72 -56 -133 -143 -133 -190 0 -21 6 -43 14 -49 17 -14
75 -2 163 34 67 27 134 32 193 15 96 -28 203 -40 268 -30 76 13 176 52 179 72
2 7 -6 24 -18 38 l-20 25 6 -32 c6 -31 5 -32 -38 -38 -93 -14 -241 -10 -334
10 -51 10 -93 22 -93 27 0 12 118 107 162 129 56 28 43 33 -27 9 -63 -22 -123
-54 -195 -106 -77 -55 -172 -89 -193 -68 -12 12 24 79 74 136 28 32 49 58 47
58 -2 0 -26 -18 -55 -40z"/>
<path d="M2282 1815 c-60 -34 -104 -66 -98 -72 6 -7 108 45 142 72 39 32 12
32 -44 0z"/>
<path d="M2538 1772 c-58 -37 -117 -75 -130 -84 l-23 -18 27 10 c67 23 248
136 248 155 0 12 -21 1 -122 -63z"/>
<path d="M2715 1808 c-58 -22 -84 -42 -39 -29 33 9 115 50 99 50 -5 -1 -32
-10 -60 -21z"/>
<path d="M674 3343 c-27 -61 -47 -89 -76 -104 -15 -8 -15 -5 3 26 21 35 21 36
3 56 -10 11 -24 18 -32 17 -19 -4 -52 -93 -52 -140 0 -21 -9 -70 -20 -110 -42
-156 -54 -263 -54 -498 0 -188 3 -246 22 -355 117 -680 495 -1205 1078 -1498
78 -39 258 -107 285 -107 26 0 3 19 -48 40 -294 118 -595 328 -789 548 -273
308 -393 582 -460 1047 -25 176 -23 453 5 610 21 116 95 355 145 469 14 31 23
56 20 56 -3 0 -16 -26 -30 -57z"/>
<path d="M4513 2100 c-20 -8 -43 -60 -43 -97 0 -7 -20 -73 -44 -147 -53 -161
-113 -290 -193 -411 -79 -121 -76 -116 -60 -109 8 3 18 1 22 -5 13 -22 25 -9
94 93 106 159 177 318 231 521 30 108 37 166 23 164 -5 0 -18 -4 -30 -9z"/>
<path d="M4170 1285 c18 -19 36 -33 38 -30 8 8 -40 65 -56 65 -11 0 -6 -10 18
-35z"/>
<path d="M4025 1180 c-408 -411 -967 -641 -1554 -640 -126 1 -302 19 -420 44
-89 20 -103 15 -24 -7 297 -82 688 -96 998 -37 360 70 722 262 998 529 38 36
87 88 109 114 39 46 40 48 23 67 -10 11 -23 20 -29 20 -6 0 -52 -41 -101 -90z"/>
<path d="M3228 919 c-35 -20 -211 -79 -306 -103 -290 -73 -588 -75 -841 -6
-91 26 -104 19 -19 -9 154 -50 296 -73 468 -72 236 0 443 47 638 145 83 42
106 57 85 56 -5 0 -16 -5 -25 -11z"/>
<path d="M1930 850 c8 -5 20 -10 25 -10 6 0 3 5 -5 10 -8 5 -19 10 -25 10 -5
0 -3 -5 5 -10z"/>
</g>
</svg>