<svg width="1124" height="626" viewBox="0 0 1124 626" fill="none" xmlns="http://www.w3.org/2000/svg">
<rect width="1124" height="626" fill="#101011"/>
<path d="M100.351 422.662C84.8492 468.689 124.725 523.169 187.097 549.891C271.911 586.265 372.123 560.034 421.603 547.109C440.393 542.201 510.489 522.623 571.503 474.415C599.166 452.547 690.192 380.561 661.068 306.612C632.153 233.1 503.86 207.087 426.196 191.381C332.978 172.457 180.781 160.733 149.622 198.798C122.742 231.573 212.619 268.111 190.176 329.68C173.474 375.489 115.748 376.962 100.351 422.662Z" stroke="#A2253C" stroke-width="1.2" stroke-miterlimit="10"/>
<path d="M236.368 532.712C314.032 563.252 409.39 539.584 459.026 523.278C478.442 516.897 552.088 495.465 600.785 442.621C623.906 417.481 691.758 349.476 657.937 282.563C623.802 215.103 494.675 191.817 422.752 180.856C337.258 167.877 210.741 160.296 180.834 199.943C155.52 233.536 229.792 266.093 208.392 325.154C192.108 370.309 143.515 376.58 136.887 419.935C130.154 464.163 176.554 509.153 236.368 532.712Z" stroke="#A2253C" stroke-width="1.2" stroke-miterlimit="10"/>
<path d="M285.482 515.97C355.891 540.892 446.5 519.569 496.397 499.882C516.387 492.03 593.529 467.216 629.908 411.318C648.855 382.252 693.063 318.828 654.648 258.949C615.242 197.543 485.436 176.929 419.202 170.876C341.538 163.732 240.595 160.351 211.993 201.579C188.088 235.936 246.859 264.566 226.503 321.118C210.584 365.564 171.334 377.125 173.318 417.699C175.405 460.563 228.173 495.683 285.482 515.97Z" stroke="#A2253C" stroke-width="1.2" stroke-miterlimit="10"/>
<path d="M333.71 500.21C396.655 519.679 482.67 500.319 532.829 477.414C553.341 468.034 633.249 438.313 658.146 380.888C672.76 347.077 693.22 289.052 650.421 236.263C605.535 180.856 475.311 162.914 414.714 161.714C344.879 160.351 269.459 161.278 242.162 204.087C219.718 239.208 262.935 263.912 243.623 318.01C228.174 361.747 198.684 378.871 208.81 416.336C220.084 458.273 278.75 483.141 333.71 500.21Z" stroke="#A2253C" stroke-width="1.2" stroke-miterlimit="10"/>
<path d="M379.117 486.303C434.495 500.701 516.022 483.031 566.441 456.909C587.475 446.002 668.949 410.282 683.511 352.421C693.324 313.375 690.349 261.294 643.374 215.485C592.851 166.186 462.523 150.753 407.406 154.57C345.557 158.824 295.503 164.114 269.511 208.559C248.529 244.388 276.244 265.166 257.976 316.81C242.892 359.838 223.789 382.633 241.483 416.936C262.621 457.945 326.402 472.615 379.117 486.303Z" stroke="#A2253C" stroke-width="1.2" stroke-miterlimit="10"/>
<path d="M421.759 473.161C469.36 482.759 546.554 466.344 597.287 437.059C618.843 424.625 700.683 382.633 706.163 324.663C710.338 280.109 684.607 234.354 633.614 195.416C577.244 152.334 447.021 139.137 397.28 148.081C343.521 157.788 318.781 167.604 294.093 213.74C274.573 250.278 286.734 267.184 269.562 316.32C254.896 358.693 246.493 386.778 271.389 418.19C302.81 458 371.131 462.963 421.759 473.161Z" stroke="#A2253C" stroke-width="1.2" stroke-miterlimit="10"/>
<path d="M464.454 460.291C504.174 465.526 577.141 449.874 628.186 417.535C650.264 403.466 731.582 355.53 728.816 297.178C726.467 247.279 678.762 207.905 623.854 175.62C561.587 139.028 431.625 127.521 387.312 141.864C341.643 156.697 342.06 171.367 318.782 219.194C300.618 256.441 297.33 269.474 281.202 316.156C266.953 357.766 269.406 390.814 301.349 419.771C343.261 457.836 415.758 453.856 464.454 460.291Z" stroke="#A2253C" stroke-width="1.2" stroke-miterlimit="10"/>
<path d="M507.88 446.711C538.674 454.728 608.405 432.751 659.816 397.303C682.468 381.706 762.69 328.372 752.251 268.984C742.647 214.231 673.7 181.019 614.877 155.17C546.608 125.231 416.906 114.869 378.022 135.047C340.338 154.57 366.07 174.475 344.2 223.993C327.394 261.949 308.656 271.056 293.573 315.283C279.741 356.239 292.998 393.977 332.039 420.698C384.442 456.582 462.367 434.877 507.88 446.711Z" stroke="#A2253C" stroke-width="1.2" stroke-miterlimit="10"/>
<path d="M551.619 431.878C575.263 434.114 639.983 414.318 691.759 375.816C714.881 358.583 793.902 300.668 776 239.589C758.672 180.419 668.898 152.989 606.161 133.465C531.942 110.397 402.084 100.581 369.045 126.921C339.034 150.807 390.288 176.275 369.881 227.483C354.431 266.148 320.297 271.383 306.256 313.102C292.79 353.403 316.747 395.612 363.043 420.317C425.832 453.855 506.68 427.679 551.619 431.878Z" stroke="#A2253C" stroke-width="1.2" stroke-miterlimit="10"/>
<path d="M318.886 307.048C305.837 346.586 340.285 393.213 393.992 416.008C467.012 447.038 552.922 424.298 595.304 413.118C611.432 408.864 671.454 391.904 723.596 350.349C747.24 331.534 825.061 269.583 799.642 206.16C774.433 143.172 664.2 121.14 597.392 107.779C517.326 91.8008 386.581 82.0392 360.014 114.814C337.154 143.009 414.453 174.148 395.506 227.046C381.414 266.366 331.83 267.784 318.886 307.048Z" stroke="#A2253C" stroke-width="1.2" stroke-miterlimit="10"/>
<g opacity="0.5">
<path d="M491.752 223.187C332.457 245.006 317.947 273.317 314.868 281.224C294.303 333.794 407.511 432.002 518.058 432.685C631.84 433.466 671.142 330.475 763.212 340.53C874.436 352.635 900.272 512.004 954.867 506.195C1006.64 500.679 1068.18 348.193 990.254 262.529C903.195 166.859 681.163 197.269 491.752 223.187Z" stroke="#646464" stroke-width="1.2" stroke-miterlimit="10"/>
<path d="M338.302 312.17C316.903 368.401 394.463 455.578 492.691 460.849C593.79 466.267 649.272 381.922 744.317 385.68C857.943 390.122 879.603 511.613 927.778 490.527C972.769 470.807 1025.07 333.55 953.718 257.795C870.417 169.251 656.214 204.493 486.271 238.075C342.686 266.434 343.887 297.38 338.302 312.17Z" stroke="#646464" stroke-width="1.2" stroke-miterlimit="10"/>
<path d="M362.311 338.333C339.868 398.127 381.988 474.419 468.004 484.181C556.42 494.236 627.977 428.634 726.049 425.998C842.076 422.874 859.3 506.976 901.316 470.075C939.313 436.639 982.425 314.171 917.861 248.227C838.162 166.81 631.735 207.031 481.417 248.13C353.386 283.128 370.453 316.661 362.311 338.333Z" stroke="#646464" stroke-width="1.2" stroke-miterlimit="10"/>
<path d="M388.148 348.437C364.609 411.794 371.29 477.152 445.092 491.503C520.772 506.195 608.51 459.385 709.557 450.306C827.933 439.616 841.033 486.719 876.629 433.515C907.893 386.852 941.402 278.881 883.832 222.65C807.629 148.311 608.98 193.705 478.391 242.126C365.757 283.908 398.796 319.882 388.148 348.437Z" stroke="#646464" stroke-width="1.2" stroke-miterlimit="10"/>
<path d="M419.099 357.955C394.411 424.875 365.653 479.251 427.241 498.19C490.187 517.47 594.105 489.55 698.231 473.98C818.955 455.871 828.193 465.975 857.057 396.37C881.849 336.527 905.231 243.102 854.864 196.488C782.054 129.177 591.182 180.038 480.427 235.537C383.137 284.299 432.2 322.469 419.099 357.955Z" stroke="#646464" stroke-width="1.2" stroke-miterlimit="10"/>
<path d="M456.521 365.863C430.633 436.346 366.434 479.69 415.914 503.266C466.02 527.086 586.17 518.203 693.324 496.042C816.396 470.563 822.086 443.619 843.955 357.662C862.484 284.592 875.271 205.908 832.316 168.665C762.794 108.432 579.802 165.248 488.985 227.336C406.937 283.42 472.022 323.446 456.521 365.863Z" stroke="#646464" stroke-width="1.2" stroke-miterlimit="10"/>
<path d="M497.649 371.525C470.665 445.523 370.922 477.787 408.293 506.097C445.559 534.359 582.046 544.658 692.175 515.86C817.649 483.107 819.893 418.872 834.612 316.71C847.034 230.314 848.756 166.713 813.577 138.646C746.978 85.5396 572.442 148.653 501.25 216.891C434.651 280.736 515.656 322.177 497.649 371.525Z" stroke="#646464" stroke-width="1.2" stroke-miterlimit="10"/>
<path d="M539.769 375.918C511.48 453.43 376.508 474.419 401.665 507.708C426.196 540.168 578.863 569.894 691.966 534.457C819.893 494.383 818.641 392.855 826.156 274.439C832.524 174.718 822.816 126.59 795.78 107.358C731.634 61.6709 566.545 131.178 514.455 205.225C463.828 277.221 560.073 319.638 539.769 375.918Z" stroke="#646464" stroke-width="1.2" stroke-miterlimit="10"/>
<path d="M581.003 379.872C551.618 460.996 381.518 470.514 394.149 508.831C406.258 545.439 574.948 594.885 690.923 552.566C821.355 505.463 816.658 366.302 816.918 231.778C817.179 118.585 795.571 86.5647 777.147 75.631C714.567 38.388 560.543 113.362 526.878 193.071C492.9 273.317 603.811 316.661 581.003 379.872Z" stroke="#646464" stroke-width="1.2" stroke-miterlimit="10"/>
<path d="M806.011 188.531C800.218 61.8661 766.396 46.7834 756.845 43.2689C693.221 20.1324 553.602 94.6184 537.579 180.331C521.086 268.533 645.881 313.146 620.619 383.239C590.138 467.927 385.121 466.218 385.017 509.368C384.912 550.32 569.261 618.949 688.21 570.138C821.043 515.615 812.953 339.114 806.011 188.531Z" stroke="#646464" stroke-width="1.2" stroke-miterlimit="10"/>
</g>
<rect width="1124" height="626" fill="url(#paint0_linear_167_35)"/>
<path d="M206.326 426.162C205.138 426.162 204.103 426.027 203.221 425.757C202.339 425.487 201.61 425.001 201.034 424.299C200.458 423.579 200.026 422.553 199.738 421.221C199.468 419.889 199.333 418.152 199.333 416.01C199.333 413.994 199.477 412.338 199.765 411.042C200.053 409.728 200.485 408.702 201.061 407.964C201.655 407.226 202.402 406.713 203.302 406.425C204.202 406.119 205.264 405.966 206.488 405.966C207.046 405.966 207.667 406.002 208.351 406.074C209.035 406.146 209.71 406.236 210.376 406.344C211.042 406.434 211.645 406.551 212.185 406.695V408.288C211.879 408.234 211.447 408.18 210.889 408.126C210.331 408.072 209.692 408.027 208.972 407.991C208.27 407.937 207.55 407.91 206.812 407.91C205.858 407.91 205.039 408.018 204.355 408.234C203.671 408.45 203.113 408.855 202.681 409.449C202.267 410.025 201.961 410.844 201.763 411.906C201.565 412.968 201.466 414.345 201.466 416.037C201.466 417.747 201.556 419.151 201.736 420.249C201.934 421.329 202.24 422.157 202.654 422.733C203.068 423.309 203.608 423.705 204.274 423.921C204.94 424.137 205.768 424.245 206.758 424.245C208.108 424.245 209.215 424.209 210.079 424.137C210.943 424.065 211.645 423.984 212.185 423.894V425.514C211.645 425.64 211.042 425.757 210.376 425.865C209.728 425.955 209.053 426.027 208.351 426.081C207.667 426.135 206.992 426.162 206.326 426.162ZM227.626 426.162C226.348 426.162 225.223 426.045 224.251 425.811C223.297 425.559 222.496 425.091 221.848 424.407C221.218 423.723 220.741 422.715 220.417 421.383C220.111 420.051 219.958 418.305 219.958 416.145C219.958 413.985 220.12 412.239 220.444 410.907C220.768 409.557 221.254 408.531 221.902 407.829C222.55 407.109 223.351 406.623 224.305 406.371C225.259 406.101 226.366 405.966 227.626 405.966C228.922 405.966 230.047 406.101 231.001 406.371C231.973 406.623 232.774 407.109 233.404 407.829C234.052 408.531 234.529 409.557 234.835 410.907C235.141 412.239 235.294 413.985 235.294 416.145C235.294 418.305 235.132 420.051 234.808 421.383C234.502 422.715 234.025 423.723 233.377 424.407C232.747 425.091 231.955 425.559 231.001 425.811C230.047 426.045 228.922 426.162 227.626 426.162ZM227.626 424.245C228.634 424.245 229.489 424.146 230.191 423.948C230.893 423.75 231.46 423.372 231.892 422.814C232.342 422.238 232.666 421.419 232.864 420.357C233.062 419.295 233.161 417.891 233.161 416.145C233.161 414.327 233.053 412.869 232.837 411.771C232.639 410.673 232.315 409.845 231.865 409.287C231.433 408.729 230.866 408.36 230.164 408.18C229.48 408 228.634 407.91 227.626 407.91C226.69 407.91 225.871 408 225.169 408.18C224.485 408.36 223.909 408.729 223.441 409.287C222.991 409.845 222.649 410.673 222.415 411.771C222.199 412.869 222.091 414.327 222.091 416.145C222.091 417.891 222.181 419.295 222.361 420.357C222.559 421.419 222.874 422.238 223.306 422.814C223.738 423.372 224.305 423.75 225.007 423.948C225.727 424.146 226.6 424.245 227.626 424.245ZM243.087 426L245.355 406.128H247.542L252.834 423.3L258.018 406.128H260.232L262.554 426H260.475L258.477 408.585L258.828 408.639L253.806 426H251.835L246.678 408.666L247.083 408.612L245.166 426H243.087ZM270.831 426L273.099 406.128H275.286L280.578 423.3L285.762 406.128H287.976L290.298 426H288.219L286.221 408.585L286.572 408.639L281.55 426H279.579L274.422 408.666L274.827 408.612L272.91 426H270.831ZM305.344 426.162C304.228 426.162 303.22 426.063 302.32 425.865C301.42 425.667 300.646 425.334 299.998 424.866C299.368 424.38 298.882 423.732 298.54 422.922C298.198 422.094 298.027 421.068 298.027 419.844V406.128H300.187V419.844C300.187 420.978 300.385 421.86 300.781 422.49C301.195 423.12 301.789 423.57 302.563 423.84C303.337 424.092 304.264 424.218 305.344 424.218C306.424 424.218 307.351 424.092 308.125 423.84C308.899 423.57 309.484 423.12 309.88 422.49C310.294 421.86 310.501 420.978 310.501 419.844V406.128H312.661V419.844C312.661 421.068 312.49 422.094 312.148 422.922C311.806 423.732 311.311 424.38 310.663 424.866C310.033 425.334 309.268 425.667 308.368 425.865C307.468 426.063 306.46 426.162 305.344 426.162ZM322.121 426V406.128H323.876L334.244 422.301V406.128H336.377V426H334.622L324.254 409.827V426H322.121ZM345.374 426V406.128H347.534V426H345.374ZM361.384 426V408.072H355.255V406.128H369.673V408.072H363.544V426H361.384ZM382.579 426V419.412L376.261 406.128H378.502L383.686 417.252L388.87 406.128H391.03L384.739 419.412V426H382.579ZM411.763 426V406.128H419.674C420.25 406.128 420.835 406.209 421.429 406.371C422.041 406.515 422.608 406.812 423.13 407.262C423.652 407.694 424.066 408.333 424.372 409.179C424.696 410.007 424.858 411.105 424.858 412.473C424.858 413.877 424.687 415.011 424.345 415.875C424.021 416.721 423.589 417.378 423.049 417.846C422.527 418.296 421.96 418.602 421.348 418.764C420.736 418.926 420.142 419.007 419.566 419.007C419.296 419.007 418.9 418.998 418.378 418.98C417.856 418.962 417.298 418.944 416.704 418.926C416.128 418.89 415.588 418.854 415.084 418.818C414.58 418.782 414.193 418.755 413.923 418.737V426H411.763ZM413.923 417.09H419.296C419.926 417.09 420.502 416.955 421.024 416.685C421.546 416.415 421.951 415.947 422.239 415.281C422.545 414.615 422.698 413.688 422.698 412.5C422.698 411.33 422.545 410.43 422.239 409.8C421.951 409.152 421.564 408.702 421.078 408.45C420.592 408.198 420.061 408.072 419.485 408.072H413.923V417.09ZM440.44 426.162C439.162 426.162 438.037 426.045 437.065 425.811C436.111 425.559 435.31 425.091 434.662 424.407C434.032 423.723 433.555 422.715 433.231 421.383C432.925 420.051 432.772 418.305 432.772 416.145C432.772 413.985 432.934 412.239 433.258 410.907C433.582 409.557 434.068 408.531 434.716 407.829C435.364 407.109 436.165 406.623 437.119 406.371C438.073 406.101 439.18 405.966 440.44 405.966C441.736 405.966 442.861 406.101 443.815 406.371C444.787 406.623 445.588 407.109 446.218 407.829C446.866 408.531 447.343 409.557 447.649 410.907C447.955 412.239 448.108 413.985 448.108 416.145C448.108 418.305 447.946 420.051 447.622 421.383C447.316 422.715 446.839 423.723 446.191 424.407C445.561 425.091 444.769 425.559 443.815 425.811C442.861 426.045 441.736 426.162 440.44 426.162ZM440.44 424.245C441.448 424.245 442.303 424.146 443.005 423.948C443.707 423.75 444.274 423.372 444.706 422.814C445.156 422.238 445.48 421.419 445.678 420.357C445.876 419.295 445.975 417.891 445.975 416.145C445.975 414.327 445.867 412.869 445.651 411.771C445.453 410.673 445.129 409.845 444.679 409.287C444.247 408.729 443.68 408.36 442.978 408.18C442.294 408 441.448 407.91 440.44 407.91C439.504 407.91 438.685 408 437.983 408.18C437.299 408.36 436.723 408.729 436.255 409.287C435.805 409.845 435.463 410.673 435.229 411.771C435.013 412.869 434.905 414.327 434.905 416.145C434.905 417.891 434.995 419.295 435.175 420.357C435.373 421.419 435.688 422.238 436.12 422.814C436.552 423.372 437.119 423.75 437.821 423.948C438.541 424.146 439.414 424.245 440.44 424.245ZM460.514 426L455.411 406.128H457.625L461.891 423.057L466.805 406.128H468.965L473.852 423.057L478.118 406.128H480.332L475.229 426H472.907L467.885 409.125L462.836 426H460.514ZM492.061 426.108C491.629 426.108 491.17 426.072 490.684 426C490.198 425.91 489.739 425.739 489.307 425.487C488.875 425.235 488.524 424.857 488.254 424.353C487.984 423.831 487.849 423.129 487.849 422.247V410.124C487.849 409.35 487.957 408.711 488.173 408.207C488.407 407.685 488.713 407.28 489.091 406.992C489.469 406.686 489.892 406.47 490.36 406.344C490.828 406.2 491.296 406.128 491.764 406.128C492.88 406.146 493.915 406.173 494.869 406.209C495.823 406.227 496.723 406.254 497.569 406.29C498.433 406.308 499.27 406.335 500.08 406.371V408.099H492.304C491.602 408.099 491.044 408.288 490.63 408.666C490.216 409.044 490.009 409.647 490.009 410.475V415.173L498.892 415.308V416.955L490.009 417.09V421.761C490.009 422.427 490.117 422.931 490.333 423.273C490.567 423.615 490.873 423.84 491.251 423.948C491.629 424.056 492.016 424.11 492.412 424.11H500.08V425.838C499.252 425.892 498.379 425.937 497.461 425.973C496.561 426.009 495.652 426.036 494.734 426.054C493.834 426.072 492.943 426.09 492.061 426.108ZM508.896 426V406.128H516.726C517.374 406.128 518.004 406.209 518.616 406.371C519.228 406.515 519.777 406.794 520.263 407.208C520.767 407.622 521.163 408.216 521.451 408.99C521.739 409.746 521.883 410.745 521.883 411.987C521.883 413.067 521.766 413.958 521.532 414.66C521.298 415.344 520.992 415.893 520.614 416.307C520.236 416.703 519.822 417 519.372 417.198C518.94 417.378 518.517 417.504 518.103 417.576L522.18 426H519.993L516.132 417.873C515.844 417.873 515.484 417.864 515.052 417.846C514.62 417.828 514.161 417.819 513.675 417.819C513.189 417.819 512.712 417.81 512.244 417.792C511.794 417.774 511.398 417.765 511.056 417.765V426H508.896ZM511.056 416.118H516.402C516.87 416.118 517.302 416.064 517.698 415.956C518.094 415.848 518.445 415.65 518.751 415.362C519.057 415.056 519.3 414.633 519.48 414.093C519.66 413.553 519.75 412.851 519.75 411.987C519.75 411.159 519.66 410.493 519.48 409.989C519.3 409.467 519.048 409.071 518.724 408.801C518.418 408.513 518.067 408.324 517.671 408.234C517.275 408.126 516.852 408.072 516.402 408.072H511.056V416.118ZM534.735 426.108C534.303 426.108 533.844 426.072 533.358 426C532.872 425.91 532.413 425.739 531.981 425.487C531.549 425.235 531.198 424.857 530.928 424.353C530.658 423.831 530.523 423.129 530.523 422.247V410.124C530.523 409.35 530.631 408.711 530.847 408.207C531.081 407.685 531.387 407.28 531.765 406.992C532.143 406.686 532.566 406.47 533.034 406.344C533.502 406.2 533.97 406.128 534.438 406.128C535.554 406.146 536.589 406.173 537.543 406.209C538.497 406.227 539.397 406.254 540.243 406.29C541.107 406.308 541.944 406.335 542.754 406.371V408.099H534.978C534.276 408.099 533.718 408.288 533.304 408.666C532.89 409.044 532.683 409.647 532.683 410.475V415.173L541.566 415.308V416.955L532.683 417.09V421.761C532.683 422.427 532.791 422.931 533.007 423.273C533.241 423.615 533.547 423.84 533.925 423.948C534.303 424.056 534.69 424.11 535.086 424.11H542.754V425.838C541.926 425.892 541.053 425.937 540.135 425.973C539.235 426.009 538.326 426.036 537.408 426.054C536.508 426.072 535.617 426.09 534.735 426.108ZM551.569 426V406.128H559.426C560.632 406.128 561.649 406.353 562.477 406.803C563.305 407.235 563.971 407.874 564.475 408.72C564.997 409.566 565.375 410.61 565.609 411.852C565.843 413.076 565.96 414.48 565.96 416.064C565.96 418.152 565.717 419.934 565.231 421.41C564.745 422.886 564.016 424.02 563.044 424.812C562.072 425.604 560.866 426 559.426 426H551.569ZM553.729 424.083H559.264C560.326 424.083 561.19 423.759 561.856 423.111C562.522 422.445 563.017 421.518 563.341 420.33C563.665 419.124 563.827 417.702 563.827 416.064C563.827 414.588 563.737 413.346 563.557 412.338C563.377 411.312 563.098 410.484 562.72 409.854C562.36 409.224 561.892 408.774 561.316 408.504C560.74 408.216 560.056 408.072 559.264 408.072H553.729V424.083ZM591.52 426.108C591.088 426.108 590.629 426.072 590.143 426C589.657 425.91 589.198 425.739 588.766 425.487C588.334 425.235 587.983 424.857 587.713 424.353C587.443 423.831 587.308 423.129 587.308 422.247V410.124C587.308 409.35 587.416 408.711 587.632 408.207C587.866 407.685 588.172 407.28 588.55 406.992C588.928 406.686 589.351 406.47 589.819 406.344C590.287 406.2 590.755 406.128 591.223 406.128C592.339 406.146 593.374 406.173 594.328 406.209C595.282 406.227 596.182 406.254 597.028 406.29C597.892 406.308 598.729 406.335 599.539 406.371V408.099H591.763C591.061 408.099 590.503 408.288 590.089 408.666C589.675 409.044 589.468 409.647 589.468 410.475V415.173L598.351 415.308V416.955L589.468 417.09V421.761C589.468 422.427 589.576 422.931 589.792 423.273C590.026 423.615 590.332 423.84 590.71 423.948C591.088 424.056 591.475 424.11 591.871 424.11H599.539V425.838C598.711 425.892 597.838 425.937 596.92 425.973C596.02 426.009 595.111 426.036 594.193 426.054C593.293 426.072 592.402 426.09 591.52 426.108ZM613.998 426.162C613.602 426.162 613.125 426.144 612.567 426.108C612.027 426.09 611.469 426.054 610.893 426C610.317 425.964 609.768 425.919 609.246 425.865C608.742 425.811 608.319 425.748 607.977 425.676V424.029C608.427 424.065 608.976 424.101 609.624 424.137C610.272 424.173 610.965 424.2 611.703 424.218C612.459 424.236 613.197 424.245 613.917 424.245C614.727 424.245 615.456 424.164 616.104 424.002C616.752 423.84 617.265 423.543 617.643 423.111C618.039 422.679 618.237 422.058 618.237 421.248V419.898C618.237 418.98 618.003 418.287 617.535 417.819C617.067 417.333 616.311 417.09 615.267 417.09H613.134C611.496 417.09 610.209 416.73 609.273 416.01C608.355 415.29 607.896 414.048 607.896 412.284V411.15C607.896 409.278 608.4 407.946 609.408 407.154C610.416 406.362 611.838 405.966 613.674 405.966C614.25 405.966 614.898 406.002 615.618 406.074C616.338 406.128 617.031 406.2 617.697 406.29C618.381 406.362 618.948 406.443 619.398 406.533V408.18C618.606 408.108 617.706 408.045 616.698 407.991C615.708 407.937 614.772 407.91 613.89 407.91C613.08 407.91 612.378 408.009 611.784 408.207C611.19 408.387 610.731 408.72 610.407 409.206C610.101 409.674 609.948 410.349 609.948 411.231V412.149C609.948 413.247 610.236 414.003 610.812 414.417C611.388 414.831 612.189 415.038 613.215 415.038H615.51C616.608 415.038 617.508 415.236 618.21 415.632C618.912 416.028 619.434 416.577 619.776 417.279C620.118 417.963 620.289 418.755 620.289 419.655V421.194C620.289 422.526 620.001 423.552 619.425 424.272C618.867 424.992 618.111 425.487 617.157 425.757C616.221 426.027 615.168 426.162 613.998 426.162ZM629.164 426V406.128H637.075C637.651 406.128 638.236 406.209 638.83 406.371C639.442 406.515 640.009 406.812 640.531 407.262C641.053 407.694 641.467 408.333 641.773 409.179C642.097 410.007 642.259 411.105 642.259 412.473C642.259 413.877 642.088 415.011 641.746 415.875C641.422 416.721 640.99 417.378 640.45 417.846C639.928 418.296 639.361 418.602 638.749 418.764C638.137 418.926 637.543 419.007 636.967 419.007C636.697 419.007 636.301 418.998 635.779 418.98C635.257 418.962 634.699 418.944 634.105 418.926C633.529 418.89 632.989 418.854 632.485 418.818C631.981 418.782 631.594 418.755 631.324 418.737V426H629.164ZM631.324 417.09H636.697C637.327 417.09 637.903 416.955 638.425 416.685C638.947 416.415 639.352 415.947 639.64 415.281C639.946 414.615 640.099 413.688 640.099 412.5C640.099 411.33 639.946 410.43 639.64 409.8C639.352 409.152 638.965 408.702 638.479 408.45C637.993 408.198 637.462 408.072 636.886 408.072H631.324V417.09ZM657.841 426.162C656.563 426.162 655.438 426.045 654.466 425.811C653.512 425.559 652.711 425.091 652.063 424.407C651.433 423.723 650.956 422.715 650.632 421.383C650.326 420.051 650.173 418.305 650.173 416.145C650.173 413.985 650.335 412.239 650.659 410.907C650.983 409.557 651.469 408.531 652.117 407.829C652.765 407.109 653.566 406.623 654.52 406.371C655.474 406.101 656.581 405.966 657.841 405.966C659.137 405.966 660.262 406.101 661.216 406.371C662.188 406.623 662.989 407.109 663.619 407.829C664.267 408.531 664.744 409.557 665.05 410.907C665.356 412.239 665.509 413.985 665.509 416.145C665.509 418.305 665.347 420.051 665.023 421.383C664.717 422.715 664.24 423.723 663.592 424.407C662.962 425.091 662.17 425.559 661.216 425.811C660.262 426.045 659.137 426.162 657.841 426.162ZM657.841 424.245C658.849 424.245 659.704 424.146 660.406 423.948C661.108 423.75 661.675 423.372 662.107 422.814C662.557 422.238 662.881 421.419 663.079 420.357C663.277 419.295 663.376 417.891 663.376 416.145C663.376 414.327 663.268 412.869 663.052 411.771C662.854 410.673 662.53 409.845 662.08 409.287C661.648 408.729 661.081 408.36 660.379 408.18C659.695 408 658.849 407.91 657.841 407.91C656.905 407.91 656.086 408 655.384 408.18C654.7 408.36 654.124 408.729 653.656 409.287C653.206 409.845 652.864 410.673 652.63 411.771C652.414 412.869 652.306 414.327 652.306 416.145C652.306 417.891 652.396 419.295 652.576 420.357C652.774 421.419 653.089 422.238 653.521 422.814C653.953 423.372 654.52 423.75 655.222 423.948C655.942 424.146 656.815 424.245 657.841 424.245ZM674.369 426V406.128H682.199C682.847 406.128 683.477 406.209 684.089 406.371C684.701 406.515 685.25 406.794 685.736 407.208C686.24 407.622 686.636 408.216 686.924 408.99C687.212 409.746 687.356 410.745 687.356 411.987C687.356 413.067 687.239 413.958 687.005 414.66C686.771 415.344 686.465 415.893 686.087 416.307C685.709 416.703 685.295 417 684.845 417.198C684.413 417.378 683.99 417.504 683.576 417.576L687.653 426H685.466L681.605 417.873C681.317 417.873 680.957 417.864 680.525 417.846C680.093 417.828 679.634 417.819 679.148 417.819C678.662 417.819 678.185 417.81 677.717 417.792C677.267 417.774 676.871 417.765 676.529 417.765V426H674.369ZM676.529 416.118H681.875C682.343 416.118 682.775 416.064 683.171 415.956C683.567 415.848 683.918 415.65 684.224 415.362C684.53 415.056 684.773 414.633 684.953 414.093C685.133 413.553 685.223 412.851 685.223 411.987C685.223 411.159 685.133 410.493 684.953 409.989C684.773 409.467 684.521 409.071 684.197 408.801C683.891 408.513 683.54 408.324 683.144 408.234C682.748 408.126 682.325 408.072 681.875 408.072H676.529V416.118ZM700.478 426V408.072H694.349V406.128H708.767V408.072H702.638V426H700.478ZM722.132 426.162C721.736 426.162 721.259 426.144 720.701 426.108C720.161 426.09 719.603 426.054 719.027 426C718.451 425.964 717.902 425.919 717.38 425.865C716.876 425.811 716.453 425.748 716.111 425.676V424.029C716.561 424.065 717.11 424.101 717.758 424.137C718.406 424.173 719.099 424.2 719.837 424.218C720.593 424.236 721.331 424.245 722.051 424.245C722.861 424.245 723.59 424.164 724.238 424.002C724.886 423.84 725.399 423.543 725.777 423.111C726.173 422.679 726.371 422.058 726.371 421.248V419.898C726.371 418.98 726.137 418.287 725.669 417.819C725.201 417.333 724.445 417.09 723.401 417.09H721.268C719.63 417.09 718.343 416.73 717.407 416.01C716.489 415.29 716.03 414.048 716.03 412.284V411.15C716.03 409.278 716.534 407.946 717.542 407.154C718.55 406.362 719.972 405.966 721.808 405.966C722.384 405.966 723.032 406.002 723.752 406.074C724.472 406.128 725.165 406.2 725.831 406.29C726.515 406.362 727.082 406.443 727.532 406.533V408.18C726.74 408.108 725.84 408.045 724.832 407.991C723.842 407.937 722.906 407.91 722.024 407.91C721.214 407.91 720.512 408.009 719.918 408.207C719.324 408.387 718.865 408.72 718.541 409.206C718.235 409.674 718.082 410.349 718.082 411.231V412.149C718.082 413.247 718.37 414.003 718.946 414.417C719.522 414.831 720.323 415.038 721.349 415.038H723.644C724.742 415.038 725.642 415.236 726.344 415.632C727.046 416.028 727.568 416.577 727.91 417.279C728.252 417.963 728.423 418.755 728.423 419.655V421.194C728.423 422.526 728.135 423.552 727.559 424.272C727.001 424.992 726.245 425.487 725.291 425.757C724.355 426.027 723.302 426.162 722.132 426.162ZM749.775 426V406.128H756.957C758.667 406.128 759.945 406.551 760.791 407.397C761.655 408.243 762.087 409.521 762.087 411.231C762.087 412.059 761.961 412.779 761.709 413.391C761.457 414.003 761.115 414.507 760.683 414.903C760.269 415.281 759.801 415.542 759.279 415.686C759.639 415.776 760.017 415.929 760.413 416.145C760.827 416.343 761.214 416.631 761.574 417.009C761.934 417.387 762.222 417.864 762.438 418.44C762.672 419.016 762.789 419.7 762.789 420.492C762.789 421.896 762.564 423.003 762.114 423.813C761.664 424.605 761.025 425.172 760.197 425.514C759.369 425.838 758.379 426 757.227 426H749.775ZM751.935 424.083H757.173C757.893 424.083 758.514 423.975 759.036 423.759C759.576 423.525 759.99 423.129 760.278 422.571C760.584 421.995 760.737 421.185 760.737 420.141C760.737 419.403 760.575 418.773 760.251 418.251C759.945 417.729 759.522 417.333 758.982 417.063C758.442 416.775 757.839 416.631 757.173 416.631H751.935V424.083ZM751.935 414.93H757.092C757.938 414.93 758.631 414.624 759.171 414.012C759.729 413.4 760.017 412.572 760.035 411.528C760.071 410.25 759.792 409.359 759.198 408.855C758.622 408.333 757.875 408.072 756.957 408.072H751.935V414.93ZM775.456 426.108C775.024 426.108 774.565 426.072 774.079 426C773.593 425.91 773.134 425.739 772.702 425.487C772.27 425.235 771.919 424.857 771.649 424.353C771.379 423.831 771.244 423.129 771.244 422.247V410.124C771.244 409.35 771.352 408.711 771.568 408.207C771.802 407.685 772.108 407.28 772.486 406.992C772.864 406.686 773.287 406.47 773.755 406.344C774.223 406.2 774.691 406.128 775.159 406.128C776.275 406.146 777.31 406.173 778.264 406.209C779.218 406.227 780.118 406.254 780.964 406.29C781.828 406.308 782.665 406.335 783.475 406.371V408.099H775.699C774.997 408.099 774.439 408.288 774.025 408.666C773.611 409.044 773.404 409.647 773.404 410.475V415.173L782.287 415.308V416.955L773.404 417.09V421.761C773.404 422.427 773.512 422.931 773.728 423.273C773.962 423.615 774.268 423.84 774.646 423.948C775.024 424.056 775.411 424.11 775.807 424.11H783.475V425.838C782.647 425.892 781.774 425.937 780.856 425.973C779.956 426.009 779.047 426.036 778.129 426.054C777.229 426.072 776.338 426.09 775.456 426.108ZM796.772 426V408.072H790.643V406.128H805.061V408.072H798.932V426H796.772ZM817.529 426V408.072H811.4V406.128H825.818V408.072H819.689V426H817.529ZM833.54 426V406.128H835.7V426H833.54ZM845.446 426V406.128H847.201L857.569 422.301V406.128H859.702V426H857.947L847.579 409.827V426H845.446ZM874.585 426.135C873.325 426.153 872.281 425.964 871.453 425.568C870.625 425.154 869.977 424.533 869.509 423.705C869.041 422.877 868.708 421.824 868.51 420.546C868.312 419.268 868.213 417.756 868.213 416.01C868.213 414.336 868.312 412.869 868.51 411.609C868.726 410.349 869.086 409.305 869.59 408.477C870.094 407.631 870.778 407.001 871.642 406.587C872.524 406.173 873.622 405.966 874.936 405.966C875.638 405.966 876.367 405.993 877.123 406.047C877.879 406.101 878.617 406.182 879.337 406.29C880.057 406.398 880.723 406.524 881.335 406.668V408.288C880.975 408.234 880.471 408.18 879.823 408.126C879.175 408.054 878.446 408 877.636 407.964C876.844 407.928 876.052 407.91 875.26 407.91C873.964 407.91 872.956 408.18 872.236 408.72C871.534 409.242 871.039 410.106 870.751 411.312C870.481 412.5 870.346 414.075 870.346 416.037C870.346 417.621 870.418 418.935 870.562 419.979C870.724 421.023 870.985 421.851 871.345 422.463C871.705 423.075 872.191 423.516 872.803 423.786C873.433 424.038 874.225 424.164 875.179 424.164C876.025 424.164 876.898 424.056 877.798 423.84C878.698 423.624 879.463 423.39 880.093 423.138V417.279H875.287V415.686C875.629 415.632 876.043 415.587 876.529 415.551C877.015 415.515 877.528 415.488 878.068 415.47C878.626 415.434 879.184 415.416 879.742 415.416C880.21 415.416 880.651 415.425 881.065 415.443C881.479 415.443 881.839 415.47 882.145 415.524V426H880.579L880.255 424.596C879.607 424.92 878.779 425.253 877.771 425.595C876.781 425.937 875.719 426.117 874.585 426.135Z" fill="#EEE2DF"/>
<path d="M133.958 235V187.64H152.583C157.276 187.64 160.689 188.728 162.823 190.904C164.999 193.037 166.087 196.088 166.087 200.056C166.087 201.933 165.809 203.597 165.255 205.048C164.743 206.456 163.996 207.629 163.014 208.568C162.033 209.464 160.86 210.083 159.495 210.424C160.519 210.68 161.5 211.085 162.438 211.64C163.42 212.195 164.294 212.941 165.062 213.88C165.873 214.819 166.492 215.971 166.919 217.336C167.388 218.659 167.623 220.195 167.623 221.944C167.623 225.144 167.068 227.704 165.958 229.624C164.892 231.544 163.292 232.931 161.159 233.784C159.068 234.595 156.487 235 153.415 235H133.958ZM143.431 226.488H153.159C154.268 226.488 155.228 226.275 156.038 225.848C156.849 225.421 157.468 224.76 157.895 223.864C158.364 222.968 158.599 221.773 158.599 220.28C158.599 219.043 158.364 217.997 157.895 217.144C157.425 216.291 156.785 215.629 155.975 215.16C155.164 214.691 154.225 214.456 153.159 214.456H143.431V226.488ZM143.431 207.16H152.646C154.012 207.16 155.079 206.669 155.847 205.688C156.657 204.664 157.062 203.341 157.062 201.72C157.105 199.629 156.679 198.179 155.783 197.368C154.887 196.557 153.798 196.152 152.518 196.152H143.431V207.16ZM190.804 235.32C189.78 235.32 188.606 235.213 187.284 235C185.961 234.829 184.681 234.403 183.444 233.72C182.249 233.037 181.246 232.013 180.436 230.648C179.668 229.24 179.284 227.32 179.284 224.888V198.456C179.284 196.365 179.604 194.616 180.244 193.208C180.884 191.8 181.737 190.691 182.804 189.88C183.87 189.069 185.044 188.493 186.324 188.152C187.604 187.811 188.862 187.64 190.1 187.64C193.3 187.64 196.116 187.683 198.548 187.768C201.022 187.853 203.241 187.96 205.204 188.088C207.166 188.173 208.958 188.301 210.58 188.472V196.408H192.916C191.593 196.408 190.569 196.728 189.844 197.368C189.118 198.008 188.756 198.989 188.756 200.312V207.16L207.507 207.672V215.16L188.756 215.672V222.2C188.756 223.309 188.926 224.184 189.268 224.824C189.652 225.421 190.142 225.848 190.74 226.104C191.38 226.317 192.041 226.424 192.724 226.424H210.58V234.36C208.702 234.573 206.612 234.744 204.308 234.872C202.046 235 199.742 235.107 197.396 235.192C195.092 235.277 192.894 235.32 190.804 235.32ZM232.591 235V196.152H219.599V187.64H255.119V196.152H242.063V235H232.591Z" fill="#EEE2DF"/>
<path d="M360.526 249C360.989 249 361.22 249.515 360.989 249.858L276.552 361.761C269.848 370.681 259.677 378 247.655 378C235.403 378 225.462 370.681 218.527 361.761L134.091 249.858C133.86 249.515 134.091 249 134.553 249H175.529C175.702 249 175.818 249.114 175.933 249.229L247.251 345.864C247.424 346.15 247.886 346.15 248.06 345.864L319.146 249.229C319.262 249.114 319.435 249 319.551 249H360.526Z" fill="#EEE2DF"/>
<path d="M394.625 281.936C391.446 281.936 389.366 285.253 390.811 288.055C393.296 293.029 396.937 299.205 399.537 299.205H522.291V325.622H399.248C396.937 325.622 393.816 330.597 391.388 335.114C389.655 338.374 392.082 342.319 395.839 342.319H534.023V375.255H395.897C373.126 375.255 354.689 356.957 354.689 334.428V289.827C354.689 267.298 373.126 249 395.897 249H532.983C533.561 249 534.023 249.457 534.023 250.029V281.936H394.625Z" fill="#EEE2DF"/>
<path d="M771.788 375.255H718.733C718.618 375.255 718.521 375.217 718.444 375.141L670.244 337.516C665.505 333.856 661.402 329.053 658.975 323.221C658.801 322.763 658.166 322.763 657.992 323.221C655.623 329.053 651.693 333.856 646.896 337.516L598.754 375.141C598.677 375.217 598.58 375.255 598.465 375.255H545.352C544.89 375.255 544.659 374.626 545.063 374.283L625.801 312.07C626.09 311.899 626.09 311.442 625.801 311.27L546.219 249.972C545.814 249.629 546.046 249 546.508 249H599.621C599.736 249 599.832 249.038 599.91 249.114L647.127 285.825C651.693 289.484 655.623 294.287 657.992 299.948C658.166 300.348 658.801 300.348 658.975 299.948C661.344 294.287 665.274 289.484 670.013 285.825L717.288 249.114C717.365 249.038 717.462 249 717.577 249H770.632C771.152 249 771.383 249.629 770.979 249.972L691.339 311.27C691.108 311.442 691.108 311.899 691.339 312.07L772.135 374.283C772.539 374.626 772.308 375.255 771.788 375.255Z" fill="#EEE2DF"/>
<path d="M796.233 249.858L826.344 301.32C826.517 301.664 827.095 301.664 827.269 301.263L857.264 249.858C857.495 249.515 857.206 249.057 856.801 249.057L796.753 249C796.291 249 796.06 249.457 796.233 249.858Z" fill="#FC1A4A"/>
<path d="M840.677 326.251L870.787 377.714C870.961 378.057 871.539 378.057 871.712 377.714L901.707 326.308C901.938 325.908 901.649 325.451 901.245 325.451H841.197C840.735 325.451 840.503 325.908 840.677 326.251Z" fill="#FC1A4A"/>
<path d="M884.888 250.144L915.172 301.435C915.403 301.778 915.923 301.778 916.154 301.435L945.918 249.915C946.149 249.515 945.86 249.057 945.456 249.057L885.408 249.286C884.946 249.286 884.714 249.743 884.888 250.144Z" fill="#FC1A4A"/>
<path d="M870.615 257.692L840.62 309.154C840.389 309.555 840.678 310.012 841.083 310.012H901.072C901.535 310.012 901.766 309.555 901.593 309.154L871.597 257.692C871.366 257.348 870.846 257.348 870.615 257.692Z" fill="#FC1A4A"/>
<defs>
<linearGradient id="paint0_linear_167_35" x1="562" y1="626" x2="562" y2="0" gradientUnits="userSpaceOnUse">
<stop stop-color="#101011"/>
<stop offset="0.15" stop-color="#101011" stop-opacity="0.5"/>
<stop offset="0.3" stop-color="#101011" stop-opacity="0"/>
<stop offset="0.7" stop-color="#101011" stop-opacity="0"/>
<stop offset="0.85" stop-color="#101011" stop-opacity="0.5"/>
<stop offset="1" stop-color="#101011"/>
</linearGradient>
</defs>
</svg>
