<svg width="476" height="112" viewBox="0 0 476 112" fill="none" xmlns="http://www.w3.org/2000/svg">
<path d="M0.798096 28.5525V0.170685H11.959C14.7717 0.170685 16.8172 0.822699 18.0957 2.12673C19.3997 3.40519 20.0517 5.23338 20.0517 7.61132C20.0517 8.73636 19.8855 9.73356 19.5531 10.6029C19.2463 11.4467 18.7988 12.1499 18.2107 12.7124C17.6226 13.2493 16.9195 13.6201 16.1013 13.8246C16.7149 13.978 17.303 14.221 17.8655 14.5534C18.4536 14.8858 18.9778 15.3332 19.438 15.8957C19.9239 16.4583 20.2946 17.1486 20.5503 17.9668C20.8316 18.7595 20.9722 19.68 20.9722 20.7283C20.9722 22.646 20.6398 24.1802 19.975 25.3308C19.3358 26.4814 18.3769 27.3124 17.0985 27.8238C15.8456 28.3096 14.2986 28.5525 12.4576 28.5525H0.798096ZM6.47446 23.4514H12.3042C12.969 23.4514 13.5443 23.3236 14.0302 23.0679C14.516 22.8122 14.8867 22.4159 15.1424 21.8789C15.4237 21.342 15.5643 20.626 15.5643 19.7311C15.5643 18.9896 15.4237 18.3632 15.1424 17.8518C14.8612 17.3404 14.4776 16.9441 13.9918 16.6628C13.506 16.3816 12.9435 16.2409 12.3042 16.2409H6.47446V23.4514ZM6.47446 11.8686H11.9974C12.8156 11.8686 13.4548 11.5745 13.9151 10.9865C14.4009 10.3728 14.6438 9.58015 14.6438 8.60852C14.6694 7.35563 14.4137 6.48628 13.8767 6.00046C13.3398 5.51465 12.6878 5.27174 11.9207 5.27174H6.47446V11.8686Z" fill="#EEE2DF"/>
<path d="M34.8641 28.7443C34.2504 28.7443 33.5472 28.6803 32.7546 28.5525C31.9619 28.4502 31.1949 28.1945 30.4534 27.7854C29.7374 27.3763 29.1366 26.7626 28.6507 25.9444C28.1905 25.1006 27.9604 23.95 27.9604 22.4926V6.65247C27.9604 5.39958 28.1521 4.35125 28.5357 3.50746C28.9192 2.66368 29.4306 1.99888 30.0698 1.51307C30.7091 1.02725 31.4122 0.682067 32.1793 0.477513C32.9464 0.272961 33.7007 0.170685 34.4422 0.170685C36.3599 0.170685 38.0474 0.196254 39.5049 0.247391C40.9879 0.298529 42.3175 0.362452 43.4937 0.43916C44.6698 0.490299 45.7437 0.567007 46.7154 0.669282V5.42515H36.1297C35.3371 5.42515 34.7234 5.61692 34.2887 6.00046C33.8541 6.384 33.6367 6.97209 33.6367 7.76473V11.8686L44.8744 12.1754V16.6628L33.6367 16.9696V20.8817C33.6367 21.5465 33.739 22.0707 33.9436 22.4542C34.1737 22.8122 34.4677 23.0679 34.8257 23.2213C35.2092 23.3492 35.6056 23.4131 36.0147 23.4131H46.7154V28.169C45.5903 28.2968 44.3374 28.3991 42.9567 28.4758C41.6015 28.5525 40.2208 28.6164 38.8145 28.6676C37.4338 28.7187 36.1169 28.7443 34.8641 28.7443Z" fill="#EEE2DF"/>
<path d="M59.9064 28.5525V5.27174H52.1206V0.170685H73.4069V5.27174H65.5827V28.5525H59.9064Z" fill="#EEE2DF"/>
<path d="M133.849 36.4676C134.118 36.4676 134.253 36.7676 134.118 36.9676L84.8916 102.207C80.9831 107.408 75.053 111.675 68.0447 111.675C60.9015 111.675 55.1061 107.408 51.0628 102.207L1.83601 36.9676C1.70123 36.7676 1.83602 36.4676 2.10557 36.4676H25.9945C26.0956 36.4676 26.1631 36.5343 26.2305 36.601L67.8087 92.9399C67.9098 93.1066 68.1793 93.1066 68.2804 92.9399L109.724 36.601C109.791 36.5343 109.892 36.4676 109.96 36.4676H133.849Z" fill="#EEE2DF"/>
<path d="M153.728 55.6695C151.875 55.6695 150.662 57.603 151.504 59.2365C152.953 62.1368 155.076 65.7371 156.592 65.7371H228.158V81.1386H156.424C155.076 81.1386 153.257 84.039 151.841 86.6726C150.831 88.5727 152.246 90.8729 154.436 90.8729H234.998V110.075H154.47C141.194 110.075 130.446 99.4072 130.446 86.2725V60.27C130.446 47.1353 141.194 36.4676 154.47 36.4676H234.392C234.729 36.4676 234.998 36.7343 234.998 37.0676V55.6695H153.728Z" fill="#EEE2DF"/>
<path d="M373.616 110.075H342.685C342.617 110.075 342.561 110.053 342.516 110.008L314.416 88.0727C311.653 85.9391 309.26 83.1389 307.845 79.7385C307.744 79.4718 307.374 79.4718 307.273 79.7385C305.891 83.1389 303.6 85.9391 300.803 88.0727L272.736 110.008C272.691 110.053 272.635 110.075 272.568 110.075H241.603C241.333 110.075 241.199 109.708 241.435 109.508L288.505 73.2379C288.674 73.1379 288.674 72.8712 288.505 72.7712L242.108 37.0343C241.873 36.8342 242.007 36.4676 242.277 36.4676H273.242C273.309 36.4676 273.365 36.4898 273.41 36.5342L300.938 57.9364C303.6 60.0699 305.891 62.8702 307.273 66.1705C307.374 66.4039 307.744 66.4039 307.845 66.1705C309.227 62.8702 311.518 60.0699 314.281 57.9364L341.842 36.5342C341.887 36.4898 341.944 36.4676 342.011 36.4676H372.942C373.245 36.4676 373.38 36.8342 373.144 37.0343L326.714 72.7712C326.579 72.8712 326.579 73.1379 326.714 73.2379L373.818 109.508C374.054 109.708 373.919 110.075 373.616 110.075Z" fill="#EEE2DF"/>
<path d="M387.868 36.9676L405.422 66.9706C405.523 67.1706 405.86 67.1706 405.961 66.9373L423.448 36.9676C423.583 36.7676 423.415 36.5009 423.179 36.5009L388.171 36.4676C387.901 36.4676 387.767 36.7342 387.868 36.9676Z" fill="#FF3358"/>
<path d="M413.778 81.5054L431.333 111.508C431.434 111.708 431.771 111.708 431.872 111.508L449.359 81.5387C449.494 81.3053 449.325 81.0386 449.09 81.0386H414.082C413.812 81.0386 413.677 81.3054 413.778 81.5054Z" fill="#FF3358"/>
<path d="M439.553 37.1343L457.209 67.0372C457.344 67.2373 457.647 67.2373 457.782 67.0372L475.134 37.001C475.269 36.7676 475.101 36.5009 474.865 36.5009L439.857 36.6343C439.587 36.6343 439.452 36.9009 439.553 37.1343Z" fill="#FF3358"/>
<path d="M431.232 41.5347L413.745 71.5377C413.611 71.7711 413.779 72.0377 414.015 72.0377H448.989C449.259 72.0377 449.394 71.7711 449.292 71.5377L431.805 41.5347C431.67 41.3347 431.367 41.3347 431.232 41.5347Z" fill="#FF3358"/>
</svg>
